# xmcd
#
# Track frame offsets: 
#        150
#        5492
#        13604
#        22236
#        26450
#        39042
#        43827
#        54671
#        59446
#        66207
#        75441
#        79848
#
# Disc length: 1211 seconds
#
# Revision: 0
# Processed by: cddbd v1.5.2PL0 Copyright (c) Steve Scherf et al.
# Submitted via: ExactAudioCopy v0.99pb5
#
DISCID=8f04b90c
DTITLE=Nasty - Give A Shit
DYEAR=2010
DGENRE=Beatdown
TTITLE0=Fire On The People
TTITLE1=Second Life
TTITLE2=Massakermusik
TTITLE3=Heaven And Hell
TTITLE4=Ice Age
TTITLE5=Interlude
TTITLE6=Just Kind
TTITLE7=Fuck It
TTITLE8=Justice
TTITLE9=Incum
TTITLE10=D.O.I.
TTITLE11=Independence Day
EXTD=
EXTT0=
EXTT1=
EXTT2=
EXTT3=
EXTT4=
EXTT5=
EXTT6=
EXTT7=
EXTT8=
EXTT9=
EXTT10=
EXTT11=
PLAYORDER=
